<?xml version="1.0" encoding="UTF-8" standalone="no"?>
<!-- Created with Inkscape (http://www.inkscape.org/) -->

<svg
   xmlns:dc="http://purl.org/dc/elements/1.1/"
   xmlns:cc="http://creativecommons.org/ns#"
   xmlns:rdf="http://www.w3.org/1999/02/22-rdf-syntax-ns#"
   xmlns:svg="http://www.w3.org/2000/svg"
   xmlns="http://www.w3.org/2000/svg"
   xmlns:sodipodi="http://sodipodi.sourceforge.net/DTD/sodipodi-0.dtd"
   xmlns:inkscape="http://www.inkscape.org/namespaces/inkscape"
   width="210mm"
   height="297mm"
   viewBox="0 0 744.09448819 1052.3622047"
   id="svg2"
   version="1.1"
   inkscape:version="0.91 r13725"
   sodipodi:docname="NH_Pair.svg">
  <defs
     id="defs4" />
  <sodipodi:namedview
     id="base"
     pagecolor="#ffffff"
     bordercolor="#666666"
     borderopacity="1.0"
     inkscape:pageopacity="0.0"
     inkscape:pageshadow="2"
     inkscape:zoom="1.4"
     inkscape:cx="118.92303"
     inkscape:cy="796.05059"
     inkscape:document-units="px"
     inkscape:current-layer="layer1"
     showgrid="false"
     inkscape:window-width="1920"
     inkscape:window-height="1056"
     inkscape:window-x="0"
     inkscape:window-y="24"
     inkscape:window-maximized="1" />
  <metadata
     id="metadata7">
    <rdf:RDF>
      <cc:Work
         rdf:about="">
        <dc:format>image/svg+xml</dc:format>
        <dc:type
           rdf:resource="http://purl.org/dc/dcmitype/StillImage" />
        <dc:title></dc:title>
      </cc:Work>
    </rdf:RDF>
  </metadata>
  <g
     inkscape:label="Layer 1"
     inkscape:groupmode="layer"
     id="layer1">
    <g
       id="g4375"
       transform="translate(-80.714286,-90.714286)">
      <path
         inkscape:connector-curvature="0"
         id="path4271"
         d="m 363.71685,408.43904 c 0,0 0,-11.25 8.03571,-11.42857 0,0 8.39286,-2.32143 8.57143,8.39286 0,0 1.07143,13.75 -6.42857,13.92857 0,0 -10.17857,2.49999 -10.17857,-10.89286 z"
         style="fill:none;fill-rule:evenodd;stroke:#000000;stroke-width:1px;stroke-linecap:butt;stroke-linejoin:miter;stroke-opacity:1" />
      <path
         sodipodi:nodetypes="ccccc"
         inkscape:connector-curvature="0"
         id="path4273-3"
         d="m 363.08797,463.32548 c 0,0 -1.35089,-15.3101 8.21792,-15.42267 0,0 10.0191,-2.25149 9.68138,14.4095 0,0 1.46347,13.84663 -7.76762,14.97237 0,0 -10.35682,1.91376 -10.13168,-13.9592 z"
         style="fill:none;fill-rule:evenodd;stroke:#000000;stroke-width:0.44577116px;stroke-linecap:butt;stroke-linejoin:miter;stroke-opacity:1" />
      <path
         sodipodi:nodetypes="cccccccccccccccccccccccccccccccccc"
         inkscape:connector-curvature="0"
         id="path4273-3-6"
         d="m 379.13215,356.58114 c 0.27533,-8.3063 -7.89293,-7.18382 -7.89293,-7.18382 -7.80115,0.0561 -6.69981,7.68893 -6.69981,7.68893 -0.18355,7.91343 7.27306,7.35917 7.27306,7.35917 0,0 -19.2236,-1.00638 -20.29503,17.92219 -0.47284,8.27716 -0.53249,16.96751 -0.53571,25.71429 0,0 -0.17858,23.30357 18.88702,23.00329 -21.68583,0.66655 -18.65538,35.01174 -18.65538,35.01174 1.97265,37.18677 17.13924,27.37316 16.63276,30.26275 0,0 -13.34468,0.11508 -15.84468,17.61508 l 11.25,1.60714 c 0,0 2.85715,-12.85714 11.78572,-7.32143 0,0 7.67857,9.82143 -6.96429,14.10715 l -1.25,8.75 c 0,0 15.53572,-1.25 13.21429,11.42857 0,0 0.17857,6.07143 -6.42857,9.28571 0,0 -8.21429,4.46429 -11.78572,-8.57143 l -10.71428,0.89286 c 0,0 1.96428,16.96429 19.10714,17.32143 0,0 16.07142,2.67857 20.89285,-13.92857 -0.002,-0.0261 2.40605,-12.73466 -3.74999,-17.32143 0,0 -4.64286,-3.03571 -6.42857,-3.57143 0,0 6.42857,-2.67857 8.21428,-10.89286 2.30434,-10.50865 -3.15122,-18.83513 -13.78812,-20.65172 15.62163,-0.15237 17.61102,-21.2747 17.73519,-30.92753 0.75761,-37.37564 -18.80298,-32.9621 -18.80298,-32.9621 0,0 16.8719,0.0771 17.22904,-21.35151 0,0 2.5,-20.35714 -15,-21.78571 0,0 -8.57143,-1.78571 -13.21429,4.28571 -1.95787,0 -3.88852,-17.85714 7.85715,-17.85714 0,0 7.85715,-1.07143 8.57143,8.57143 l 10.71428,-1.78571 c 0,0 -3.57143,-17.5 -17.21613,-16.8396 7.09539,-0.97224 5.90227,-7.87545 5.90227,-7.87545 z"
         style="fill:none;fill-rule:evenodd;stroke:#000000;stroke-width:0.28419453px;stroke-linecap:butt;stroke-linejoin:miter;stroke-opacity:1" />
      <path
         sodipodi:nodetypes="ccccc"
         inkscape:connector-curvature="0"
         id="path4273-3-6-7"
         d="m 368.15171,356.82522 c 0,0 -0.58755,-4.07202 3.57427,-4.10196 0,0 4.35767,-0.59883 4.21079,3.83249 0,0 0.63651,3.68278 -3.55109,3.97622 0,0 -4.33189,0.51497 -4.23397,-3.70675 z"
         style="fill:none;fill-rule:evenodd;stroke:#000000;stroke-width:0.15161438px;stroke-linecap:butt;stroke-linejoin:miter;stroke-opacity:1" />
    </g>
    <g
       id="g4381"
       transform="translate(-106.07143,138.57143)">
      <path
         sodipodi:nodetypes="ccccc"
         inkscape:connector-curvature="0"
         id="path4273-3-6-7-5"
         d="m 303.9192,114.57185 c 0,0 -0.58755,-4.07202 3.57427,-4.10196 0,0 4.35767,-0.59883 4.21079,3.83249 0,0 0.63651,3.68278 -3.55109,3.97622 0,0 -4.33189,0.51497 -4.23397,-3.70675 z"
         style="fill:none;fill-rule:evenodd;stroke:#000000;stroke-width:0.15161438px;stroke-linecap:butt;stroke-linejoin:miter;stroke-opacity:1" />
      <path
         sodipodi:nodetypes="ccccccccccccccccccccccccccccccccccccccc"
         inkscape:connector-curvature="0"
         id="path4273-3-6-7-5-3"
         d="m 309.06838,121.73244 c 6.70417,0.82503 5.7606,-5.95227 5.77441,-7.45541 0.2754,-8.30872 -7.89522,-7.18592 -7.89522,-7.18592 -7.80341,0.0561 -6.70176,7.69117 -6.70176,7.69117 -0.1836,7.91572 4.81777,7.56656 4.81777,7.56656 l -8.95242,6.36634 c 0,0 0.43866,9.21186 -5.26393,12.72114 0,0 3.94795,3.07062 -0.43865,7.45722 l 0.43865,4.38661 -3.50928,5.70258 0,3.07062 -3.50928,2.63195 c 0,0 10.08919,7.01857 1.75464,19.30105 0,0 -3.50928,6.14124 -9.65052,6.14124 l -2.19329,4.3866 c 0,0 -12.72115,1.31598 -12.28249,6.14124 l 0.87732,12.72115 -3.50928,7.89588 c 0,0 0.43866,4.82526 -2.1933,6.5799 l -3.50928,9.21186 -4.82526,5.70258 c 0,0 -1.31598,9.21186 -3.94794,11.40516 0,0 1.31598,11.84383 -2.63196,12.28247 0,0 1.31598,9.65054 -0.43866,11.40518 l -1.75464,4.82527 c 0,0 3.07061,13.15981 -3.94795,14.91445 l 0,3.07059 c 0,0 -3.94794,7.45723 0,10.96654 l 3.92082,4.84703 63.27662,2.48144 c 0,0 5.58324,-8.68502 11.16647,-9.30539 l 4.10419,-4.60299 7.01856,-3.07063 3.94795,3.94796 6.57989,-15.35314 -7.45722,-6.57991 1.75464,-7.01854 c 0,0 -13.40429,16.54607 -16.91357,-154.97 0,0 -3.31298,3.6709 -3.90603,-0.27985 z"
         style="fill:none;fill-rule:evenodd;stroke:#000000;stroke-width:0.28427678px;stroke-linecap:butt;stroke-linejoin:miter;stroke-opacity:1" />
    </g>
  </g>
</svg>
