<?xml version="1.0" encoding="UTF-8" standalone="no"?>
<!-- Created with Inkscape (http://www.inkscape.org/) -->

<svg
   xmlns:osb="http://www.openswatchbook.org/uri/2009/osb"
   xmlns:dc="http://purl.org/dc/elements/1.1/"
   xmlns:cc="http://creativecommons.org/ns#"
   xmlns:rdf="http://www.w3.org/1999/02/22-rdf-syntax-ns#"
   xmlns:svg="http://www.w3.org/2000/svg"
   xmlns="http://www.w3.org/2000/svg"
   xmlns:sodipodi="http://sodipodi.sourceforge.net/DTD/sodipodi-0.dtd"
   xmlns:inkscape="http://www.inkscape.org/namespaces/inkscape"
   id="svg3409"
   version="1.1"
   inkscape:version="0.91 r13725"
   width="570"
   height="418"
   viewBox="0 0 570 418"
   sodipodi:docname="sheep.svg">
  <metadata
     id="metadata3415">
    <rdf:RDF>
      <cc:Work
         rdf:about="">
        <dc:format>image/svg+xml</dc:format>
        <dc:type
           rdf:resource="http://purl.org/dc/dcmitype/StillImage" />
        <dc:title></dc:title>
      </cc:Work>
    </rdf:RDF>
  </metadata>
  <defs
     id="defs3413">
    <linearGradient
       id="linearGradient4233"
       osb:paint="solid">
      <stop
         style="stop-color:#000000;stop-opacity:1;"
         offset="0"
         id="stop4235" />
    </linearGradient>
  </defs>
  <sodipodi:namedview
     pagecolor="#ffffff"
     bordercolor="#666666"
     borderopacity="1"
     objecttolerance="10"
     gridtolerance="10"
     guidetolerance="10"
     inkscape:pageopacity="0"
     inkscape:pageshadow="2"
     inkscape:window-width="1375"
     inkscape:window-height="876"
     id="namedview3411"
     showgrid="false"
     inkscape:snap-page="true"
     inkscape:snap-to-guides="false"
     inkscape:snap-center="true"
     inkscape:object-nodes="true"
     inkscape:object-paths="true"
     showguides="false"
     inkscape:zoom="16"
     inkscape:cx="281.6543"
     inkscape:cy="223.2017"
     inkscape:window-x="65"
     inkscape:window-y="24"
     inkscape:window-maximized="1"
     inkscape:current-layer="layer1" />
  <g
     inkscape:groupmode="layer"
     id="layer1"
     inkscape:label="Layer 1"
     style="opacity:0.338">
    <path
       style="fill:none;fill-rule:evenodd;stroke:#000000;stroke-width:1.0629921;stroke-linecap:butt;stroke-linejoin:miter;stroke-miterlimit:4;stroke-dasharray:none;stroke-opacity:1"
       d="m 297.40715,162.45352 c 0,0 5.51001,-1.76685 4.76828,3.32584 0,0 5.40405,-0.83146 5.08617,3.8455 0,0 4.55635,0.51967 2.22519,6.54775 0,0 4.98021,3.94944 0.52981,6.85955 0,0 3.39078,6.75561 -3.39078,5.40449 0,0 -0.21192,6.23595 -6.14578,3.32584 0,0 -2.54308,3.94944 -5.72194,1.35112 0,0 -5.08617,3.74158 -6.78155,-1.66292 0,0 -9.43061,3.84551 -6.88752,-2.39044 0,0 -7.73521,1.45505 -5.04643,-4.7679 0,0 -5.30199,-1.32673 -5.8318,-4.39272 0,0 -0.38341,-0.67888 -0.3713,-2.50847 0.0122,-1.84454 2.87854,-5.99944 2.87854,-5.99944 l 0.74174,-1.35113 c 0,0 -0.63577,-3.32584 0.84769,-4.36516 1.48347,-1.03933 2.96693,-1.76686 2.96693,-1.76686 0,0 1.48347,-1.45506 2.64905,-2.07865 1.16558,-0.62359 1.88449,-1.55898 4.02655,-1.03932 1.62508,0.39424 3.75389,1.35279 3.75389,1.97639 0,0.62359 0.16669,-2.70392 3.23959,-0.6773 0,0 3.07289,-3.27372 6.46367,0.36392 z"
       id="path4225"
       inkscape:connector-curvature="0"
       sodipodi:nodetypes="ccccccccccccsccscsssccc" />
    <ellipse
       style="fill:#ffffff;fill-opacity:0;stroke:#000000;stroke-width:1.06299213;stroke-miterlimit:4;stroke-dasharray:none;stroke-opacity:1"
       id="path4231"
       cx="278.42023"
       cy="168.91978"
       rx="4.5909152"
       ry="4.2022457" />
    <ellipse
       style="opacity:1;fill:#ffffff;fill-opacity:0;stroke:#000000;stroke-width:1.06299213;stroke-miterlimit:4;stroke-dasharray:none;stroke-opacity:1"
       id="path4231-3"
       cx="287.75"
       cy="168"
       rx="4.5909152"
       ry="4.2022457" />
    <ellipse
       style="opacity:1;fill:#000000;fill-opacity:1;stroke:#000000;stroke-width:1.77165354;stroke-miterlimit:4;stroke-dasharray:none;stroke-opacity:1"
       id="path4256"
       cx="285.95688"
       cy="168.5"
       rx="1.2068965"
       ry="1" />
    <ellipse
       style="opacity:1;fill:#000000;fill-opacity:1;stroke:#000000;stroke-width:1.77165354;stroke-miterlimit:4;stroke-dasharray:none;stroke-opacity:1"
       id="path4256-6"
       cx="279.5"
       cy="169"
       rx="1.2068965"
       ry="1"
       inkscape:transform-center-x="21.125"
       inkscape:transform-center-y="0.75" />
    <path
       style="fill:none;fill-rule:evenodd;stroke:#000000;stroke-width:1.06299213;stroke-linecap:butt;stroke-linejoin:miter;stroke-opacity:1;stroke-miterlimit:4;stroke-dasharray:none"
       d="m 269.88176,179.62134 c 0,0 4.99324,4.50366 5.99324,0.50366 1,-4 0.1815,-7.60277 0.1815,-7.60277"
       id="path4273"
       inkscape:connector-curvature="0"
       sodipodi:nodetypes="csc" />
    <path
       style="fill:none;fill-rule:evenodd;stroke:#000000;stroke-width:1.77165354;stroke-linecap:butt;stroke-linejoin:miter;stroke-opacity:1;stroke-miterlimit:4;stroke-dasharray:none"
       d="m 276.0565,172.52223 c 0,0 0.8185,13.97777 10.5685,13.10277 0,0 7,0.25 5.5,-13.625 l -0.30773,-2.051 c 0,0 1.55773,11.676 5.68273,10.301 0,0 5.73062,-4.77828 -5.16704,-12.00271"
       id="path4275"
       inkscape:connector-curvature="0" />
    <path
       style="fill:none;fill-rule:evenodd;stroke:#000000;stroke-width:1.77165354;stroke-linecap:butt;stroke-linejoin:miter;stroke-opacity:1;stroke-miterlimit:4;stroke-dasharray:none"
       d="m 282.66594,181.56117 c 0,0 2.74003,2.20971 5.48007,0"
       id="path4277"
       inkscape:connector-curvature="0" />
    <path
       style="fill:none;fill-rule:evenodd;stroke:#000000;stroke-width:1.77165354;stroke-linecap:butt;stroke-linejoin:miter;stroke-opacity:1;stroke-miterlimit:4;stroke-dasharray:none"
       d="M 285.40597,182.05222 286.625,185.625"
       id="path4279"
       inkscape:connector-curvature="0" />
    <path
       style="fill:none;fill-rule:evenodd;stroke:#000000;stroke-width:1px;stroke-linecap:butt;stroke-linejoin:miter;stroke-opacity:1"
       d="m 286.65298,191.91945 c 0,0 -1.68895,6.96584 -0.45151,8.99877 0,0 2.80785,-3.09859 3.26008,-7.11776"
       id="path4281"
       inkscape:connector-curvature="0" />
    <path
       style="fill:none;fill-rule:evenodd;stroke:#000000;stroke-width:1px;stroke-linecap:butt;stroke-linejoin:miter;stroke-opacity:1"
       d="m 289.46155,193.80046 c 0,0 -1.31554,4.20094 0.0987,6.58743 0,0 2.2228,-1.43617 3.49788,-6.37494"
       id="path4283"
       inkscape:connector-curvature="0" />
    <path
       style="fill:none;fill-rule:evenodd;stroke:#000000;stroke-width:1px;stroke-linecap:butt;stroke-linejoin:miter;stroke-opacity:1"
       d="m 301.93744,192.33445 c 0,0 0.4391,3.89919 2.73719,6.46245 0,0 1.28892,-4.73252 0.64446,-7.05084 0,0 -0.2909,3.25014 2.44914,6.69728 0,0 0.54361,-5.95964 -1.14241,-10.00669"
       id="path4285"
       inkscape:connector-curvature="0" />
    <path
       style="fill:none;fill-rule:evenodd;stroke:#ff0000;stroke-width:1px;stroke-linecap:butt;stroke-linejoin:miter;stroke-opacity:1"
       d="m 311.30376,175.2856 c 0,0 5.12652,5.39169 0.70711,8.66206 0,0 1.5026,5.74524 -3.44715,5.92202 0,0 1.23744,7.91075 0.0442,10.69499 0,0 -2.12133,-0.88389 -2.3423,-2.03294 0,0 0.17678,1.67938 -0.66291,2.20971 0,0 -3.53553,-0.48613 -4.81716,-7.15945 0,0 -3.53554,3.18198 -5.83363,1.14904 0,0 -2.38335,5.89169 -5.12339,7.3943 0,0 -1.95353,-1.37533 -1.76603,-1.75033 0,0 -1.6875,2.6875 -2.25,2.375 -0.5625,-0.3125 -0.8125,-1 -0.8125,-1 0,0 -2.40298,-5.48195 -0.8125,-7.625 0,0 -7.6875,0.75 -5.625,-3.25 -1.55932,-0.20509 -6.11411,-0.0927 -4.625,-5.25 0,0 -7.1875,0.3125 -5.34258,-9.33446 0,0 1.27049,-4.98656 3.02247,-5.95469 0,0 -0.61872,-5.65685 2.38649,-6.27557 0,0 3.21323,-3.07751 4.8926,-3.43106 0,0 0.59728,-1.90885 5.45864,-1.64369 l 2.73023,1.18566 c 0,0 3.00168,-0.73207 3.6204,-0.11336 0,0 3.81601,-3.5625 6.72104,-0.68215 0,0 6.27878,0.42575 6.62913,3.44716 0,0 5.0196,2.35976 4.54647,4.70668 0,0 4.20397,4.30893 2.70137,7.75608 z"
       id="path4305"
       inkscape:connector-curvature="0"
       sodipodi:nodetypes="ccccccccccsccccccccccccccc" />
  </g>
</svg>
