<?xml version="1.0" encoding="UTF-8" standalone="no"?>
<!-- Created with Inkscape (http://www.inkscape.org/) -->

<svg
   xmlns:dc="http://purl.org/dc/elements/1.1/"
   xmlns:cc="http://creativecommons.org/ns#"
   xmlns:rdf="http://www.w3.org/1999/02/22-rdf-syntax-ns#"
   xmlns:svg="http://www.w3.org/2000/svg"
   xmlns="http://www.w3.org/2000/svg"
   xmlns:sodipodi="http://sodipodi.sourceforge.net/DTD/sodipodi-0.dtd"
   xmlns:inkscape="http://www.inkscape.org/namespaces/inkscape"
   width="210mm"
   height="297mm"
   viewBox="0 0 744.09448819 1052.3622047"
   id="svg2"
   version="1.1"
   inkscape:version="0.91 r13725"
   sodipodi:docname="NJPair.svg"
   inkscape:export-filename="/home/melvyn/Downloads/earrings/NJ/NJEarrings.png"
   inkscape:export-xdpi="200"
   inkscape:export-ydpi="200">
  <defs
     id="defs4" />
  <sodipodi:namedview
     id="base"
     pagecolor="#ffffff"
     bordercolor="#666666"
     borderopacity="1.0"
     inkscape:pageopacity="1"
     inkscape:pageshadow="2"
     inkscape:zoom="1.979899"
     inkscape:cx="399.90165"
     inkscape:cy="446.03269"
     inkscape:document-units="px"
     inkscape:current-layer="layer1"
     showgrid="false"
     inkscape:window-width="1920"
     inkscape:window-height="1056"
     inkscape:window-x="0"
     inkscape:window-y="24"
     inkscape:window-maximized="1" />
  <metadata
     id="metadata7">
    <rdf:RDF>
      <cc:Work
         rdf:about="">
        <dc:format>image/svg+xml</dc:format>
        <dc:type
           rdf:resource="http://purl.org/dc/dcmitype/StillImage" />
        <dc:title></dc:title>
      </cc:Work>
    </rdf:RDF>
  </metadata>
  <g
     inkscape:label="Layer 1"
     inkscape:groupmode="layer"
     id="layer1">
    <path
       style="fill:none;fill-rule:evenodd;stroke:#000000;stroke-width:1px;stroke-linecap:butt;stroke-linejoin:miter;stroke-opacity:1"
       d="m 389.89245,416.76968 c 19.45813,4.49789 21.47844,32.19185 21.47844,34.52638 -0.50507,22.22336 -37.19707,51.03809 -37.19707,51.03809 l 38.3858,0 0,21.2132 -22.72844,0 c 13.63706,7.57614 17.67767,14.39468 17.67767,14.39468 8.70546,10.2718 5.06321,55.78916 5.05077,55.81092 -2.52538,25.25381 -25.75889,36.87057 -25.75889,36.87057 l 1.01015,106.06602 -23.73859,-1.01016 0,-83.84266 -20.70812,10.6066 -5.05077,-19.19289 23.73859,-12.62691 c -28.28427,-4.54569 -29.29442,-53.03301 -29.29442,-53.03301 -0.50508,-45.45686 25.75889,-54.54824 25.75889,-54.54824 l -19.1929,0 0.36211,-14.32328 c 62.85715,-54.28572 42.14286,-68.57143 42.14286,-68.57143 -14.28571,-14.28571 -35.71429,3.57143 -35.71429,3.57143 l -7.85714,-17.14286 c 10.57845,-9.08966 23.01416,-11.50046 33.60487,-12.06198 0,0 -12.87565,1.47886 -13.23132,-16.06149 0,0 -2.13407,-15.60796 16.00548,-15.16202 0,0 14.58276,-1.78376 14.22709,13.37824 0,0 1.42271,17.54037 -10.67991,17.73749 2.8196,0.41296 6.58024,0.90462 11.70914,2.36331 z"
       id="path4244"
       inkscape:connector-curvature="0"
       sodipodi:nodetypes="cccccccccccccccccccccccccccc" />
    <path
       style="fill:none;fill-rule:evenodd;stroke:#000000;stroke-width:1px;stroke-linecap:butt;stroke-linejoin:miter;stroke-opacity:1"
       d="m 375.81371,540.10422 c 0,0 14.64286,-4.28571 14.28572,32.14286 0,0 1.42857,42.14286 -11.78572,40.35714 0,0 -18.21428,6.07143 -18.57142,-36.07142 0,0 -2.14287,-37.50001 16.07142,-36.42858 z"
       id="path4269"
       inkscape:connector-curvature="0" />
    <path
       style="fill:none;fill-rule:evenodd;stroke:#000000;stroke-width:0.24917339px;stroke-linecap:butt;stroke-linejoin:miter;stroke-opacity:1"
       d="m 254.50922,393.2514 c 0,0 5.645,-0.69021 5.50732,5.17668 0,0 0.55073,6.7872 -4.54355,6.49961 0,0 -7.02179,0.97781 -7.15947,-5.80938 0,0 -0.8261,-6.03946 6.1957,-5.86691 z"
       id="path4269-5"
       inkscape:connector-curvature="0" />
    <path
       style="fill:none;fill-rule:evenodd;stroke:#000000;stroke-width:0.63675231px;stroke-linecap:butt;stroke-linejoin:miter;stroke-opacity:1"
       d="m 237.77234,399.25991 c 0,0 -2.11063,-15.43694 15.8294,-14.99589 0,0 16.83311,-0.51423 16.48134,14.48167 0,0 2.74636,17.16962 -10.33181,16.8058 l 73.09399,46.37655 -10.6066,31.31473 0.50508,6.06092 -4.04061,2.52538 -3.53554,4.54568 -3.03045,3.03046 -2.52538,-2.0203 1.51522,-7.57615 -2.52538,3.53554 -1.51523,2.52538 -5.05076,5.55584 -1.01015,4.04061 0.50507,3.03045 -3.53553,4.54569 -0.50508,5.05076 -5.05076,-1.51523 -1.01015,1.51523 -1.01015,5.05077 5.55584,-2.52539 4.54568,6.06092 6.06092,-3.03046 6.06091,2.02031 8.08122,2.52538 3.03046,2.0203 -2.0203,-8.08122 c 0,0 4.54568,4.54569 4.54568,6.566 0,2.0203 0.50508,10.10152 0.50508,10.10152 l -2.52538,1.51523 2.52538,4.54569 -2.02031,6.06091 -1.01015,3.53554 -0.50508,2.0203 -5.55583,3.03046 2.0203,3.03046 2.02031,2.0203 0.50507,3.53553 -2.0203,4.04061 -3.03046,-1.01015 2.52538,4.54569 -6.06091,37.88072 -1.01016,6.06091 -15.65736,30.30458 -5.05076,6.06092 -1.01016,3.03045 0,0 -3.03045,6.06092 -5.05077,3.53553 -1.51523,1.51523 -2.52538,1.01015 -6.06091,4.04061 -2.02031,1.51523 -2.0203,-1.01015 -1.51523,4.54569 -3.03046,2.52538 -2.0203,2.52538 -2.02031,1.51523 -1.51523,1.01015 -2.0203,4.54569 -3.53554,6.06091 c 0,0 -0.50507,7.07107 -2.0203,5.05077 -1.51523,-2.02031 -2.02031,4.54568 -2.02031,4.54568 l -2.52538,2.52538 -4.04061,8.08122 -3.53553,0 -4.04061,4.04061 -4.04061,2.02031 -5.55584,2.52538 -3.03046,-0.50508 0.50508,-8.08122 3.03045,-3.53553 4.04061,-6.06092 c 0,0 5.05077,-12.12183 -2.52538,-13.63705 l -4.04061,-3.03046 -2.52538,0.50507 -3.53553,-2.52538 c 0,0 -8.08122,-1.01015 -9.09138,2.52538 l -3.03045,-5.05076 -3.03046,-5.55584 -4.54569,-4.04061 -5.05076,0 0.50508,3.03046 -3.53554,-3.53553 -5.05076,-7.57615 -1.51523,0 -7.07107,-3.53553 -0.50507,-3.03046 c 0,0 -2.52538,-9.09137 -7.57615,-7.07107 -5.05076,2.02031 -4.54568,-6.56599 -4.54568,-6.56599 l 3.53553,-3.03046 1.01015,-6.06091 -3.03046,-5.05076 -2.0203,-6.06092 0.50508,1.51523 c 0,0 4.04061,2.52538 8.08122,-8.5863 0,0 6.56599,-17.17259 12.6269,-19.1929 0,0 17.1726,5.55584 21.21321,-7.07106 0,0 8.08122,-20.70813 22.72843,-22.72844 l 12.12183,-8.08122 4.54569,2.02031 5.55584,-3.53554 c 0,0 -7.57615,-14.14213 -11.11168,-11.61675 l -6.56599,-8.5863 -6.566,-9.59645 c 0,0 -1.51522,-6.56599 -5.55583,-4.04061 0,0 -11.11168,2.52539 -5.55584,-8.08122 0,0 4.04061,-18.18274 -9.09138,-12.12183 0,0 -8.58629,-4.54568 -3.53553,-11.61675 l -0.50508,-8.08122 1.51523,-1.51523 -1.01015,-7.57614 2.52538,-0.50508 5.55584,-0.50508 2.0203,-3.03045 -0.50507,-3.53554 3.03046,-2.0203 0,-3.03046 -7.57615,-15.15229 9.09137,-6.06091 2.52539,-1.01016 3.53553,-5.05076 c 0,0 -3.53553,-3.53553 -1.01015,-4.04061 2.52538,-0.50508 8.58629,-4.54569 8.58629,-4.54569 l 3.53554,-3.53553 3.03046,-5.05076 -1.51523,-2.52538 5.55584,-9.09138 3.53553,-2.52538 c 3.61503,-3.17255 2.74925,-5.70424 8.01331,-5.28495 0,0 -13.84106,1.88633 -14.19281,-15.46185 z"
       id="path4269-3"
       inkscape:connector-curvature="0"
       sodipodi:nodetypes="cccccccccccccccccccccccccccccscccccccccccccccccccccccccccccccccsccccccccccccccccccccccccccscccccccccccccccccccccccccccccccccscccccccc" />
    <path
       style="fill:none;fill-rule:evenodd;stroke:#000000;stroke-width:0.24917339px;stroke-linecap:butt;stroke-linejoin:miter;stroke-opacity:1"
       d="m 374.18339,391.21897 c 0,0 5.645,-0.69021 5.50732,5.17668 0,0 0.55073,6.7872 -4.54355,6.49961 0,0 -7.02179,0.97781 -7.15947,-5.80938 0,0 -0.8261,-6.03946 6.1957,-5.86691 z"
       id="path4269-5-6"
       inkscape:connector-curvature="0" />
  </g>
</svg>
